<mxfile host="app.diagrams.net" modified="2023-05-17T06:52:40.679Z" agent="Mozilla/5.0 (Windows NT 10.0; Win64; x64) AppleWebKit/537.36 (KHTML, like Gecko) Chrome/112.0.0.0 Safari/537.36 Edg/112.0.1722.34" version="21.3.2" etag="Aw5_g39GD39voXzlYMxu" type="github">
  <diagram name="第 1 页" id="dJtaB9G0Uvy85_bg-QRI">
    <mxGraphModel>
      <root>
        <mxCell id="0" />
        <mxCell id="1" parent="0" />
      </root>
    </mxGraphModel>
  </diagram>
</mxfile>
